<svg xmlns="http://www.w3.org/2000/svg" viewBox="0 0 20.84 19.95"><defs><style>.cls-1{fill:none;stroke:#ff3268;stroke-miterlimit:10;stroke-width:2.5px;}</style></defs><title>Asset 10</title><g id="Layer_2" data-name="Layer 2"><g id="Layer_1-2" data-name="Layer 1"><path class="cls-1" d="M10.48,1.29l2.78,5.64a.07.07,0,0,0,.05,0l6.22.9a.07.07,0,0,1,0,.11l-4.5,4.39a.07.07,0,0,0,0,.06l1.06,6.2a.07.07,0,0,1-.1.07l-5.56-2.93a.07.07,0,0,0-.06,0L4.83,18.7a.07.07,0,0,1-.1-.07l1.06-6.2a.07.07,0,0,0,0-.06L1.27,8a.07.07,0,0,1,0-.11L7.53,7a.07.07,0,0,0,.05,0l2.78-5.64A.07.07,0,0,1,10.48,1.29Z"/></g></g></svg>