<svg xmlns="http://www.w3.org/2000/svg" viewBox="0 0 31.86 31.93"><defs><style>.cls-1{fill:#00d66c;}.cls-2{fill:#fff;}</style></defs><title>Transavia icon0</title><g id="Layer_2" data-name="Layer 2"><g id="Layer_1-2" data-name="Layer 1"><path class="cls-1" d="M31.86,16A15.84,15.84,0,0,0,15.93,0,15.84,15.84,0,0,0,0,16a15.84,15.84,0,0,0,15.93,16A15.83,15.83,0,0,0,31.86,16h0Z"/><path class="cls-2" d="M23,18.27h-.9c-.9,0-1.28.48-1.41,1.4a3.22,3.22,0,0,1-3.33,2.85c-2,0-3.36-1.5-3.36-3.68V13.73a1.82,1.82,0,0,0-.08-.55,1.66,1.66,0,0,0,.69.13h4.7A1.28,1.28,0,0,0,20.7,11.9v-.42a1.28,1.28,0,0,0-1.41-1.41H16.64V7.2a1.28,1.28,0,0,0-1.41-1.41h-.64A1.28,1.28,0,0,0,13.18,7.2v4.7a1.72,1.72,0,0,0,.08.55,1.69,1.69,0,0,0-.69-.13H7.87a1.28,1.28,0,0,0-1.41,1.41v.42a1.28,1.28,0,0,0,1.41,1.41h2.66v3.29c0,4.13,2.66,7,6.81,7a6.64,6.64,0,0,0,6.91-6.17A1.17,1.17,0,0,0,23,18.27Z"/></g></g></svg>