<svg xmlns="http://www.w3.org/2000/svg" viewBox="0 0 16.46 14.67"><defs><style>.cls-1{fill:#2800a0;stroke:#2800a0;stroke-miterlimit:10;}</style></defs><title>Like_10</title><g id="Layer_2" data-name="Layer 2"><g id="Layer_1-2" data-name="Layer 1"><path class="cls-1" d="M15.51,8a1.34,1.34,0,0,0-.82-2.36H11.13c.14-.76.33-2,.32-2.13A7.69,7.69,0,0,0,10.63,1,1.52,1.52,0,0,0,9.18.53c-.86.18-.94.73-.94.88,0,0,0,1.49,0,1.89A13.75,13.75,0,0,1,6,6.75a.65.65,0,0,0-.34-.1H1.19a.69.69,0,0,0-.69.69v6.23a.65.65,0,0,0,.65.6h4a.65.65,0,0,0,.65-.65v-.21a.47.47,0,0,1,.22,0,1.84,1.84,0,0,0,1,.37h6c2.26,0,2-2,1.81-2.28a1.55,1.55,0,0,0,.3-1.73A1.55,1.55,0,0,0,15.51,8ZM5.06,13.52H1.15V7.3H5.06Zm9.4-5.59,0,.15c1,.3.49,1.5-.26,1.57l0,.15c1,.25.52,1.49-.26,1.57l0,.15c.82.13.62,1.52-.62,1.52H7.06c-.43,0-.83-.49-1.15-.49H5.64V7.78a9.8,9.8,0,0,0,1-.7A16.91,16.91,0,0,0,8.93,3.37c0-.37,0-2,0-2s.36-.46,1.16-.13a7,7,0,0,1,.74,2.28s-.3,2.08-.47,2.73h4.26C15.64,6.28,15.44,7.78,14.46,7.93Z"/></g></g></svg>