<svg xmlns="http://www.w3.org/2000/svg" viewBox="0 0 20.81 19.94"><defs><style>.cls-1{fill:#ff3268;stroke:#ff3268;stroke-miterlimit:10;stroke-width:2.5px;}</style></defs><title>Icon-rating-selected0</title><g id="Layer_2" data-name="Layer 2"><g id="Layer_1-2" data-name="Layer 1"><g id="Layer_2-2" data-name="Layer 2"><g id="Layer_1-2-2" data-name="Layer 1-2"><path class="cls-1" d="M10.49,1.28l2.78,5.64h.05l6.22.9a.07.07,0,0,1,0,.1h0L15,12.32a.07.07,0,0,0,0,.06l1.06,6.2a.07.07,0,0,1-.06.08h0l-5.56-2.93h-.06l-5.54,3a.07.07,0,0,1-.1-.07l1.06-6.2a.07.07,0,0,0,0-.06L1.28,8a.07.07,0,0,1,0-.1h0L7.54,7h.05l2.78-5.64a.07.07,0,0,1,.12-.07Z"/></g></g></g></g></svg>